<svg width="518" height="518" viewBox="0 0 518 518" fill="none" xmlns="http://www.w3.org/2000/svg">
<path d="M238.558 7.34061C322.893 1.61213 349.355 69.4757 349.355 110.412L334.68 102.371C334.68 102.371 339.75 65.0896 297.992 37.3117C289.187 31.4545 257.887 7.34061 217.279 21.2297C176.671 35.1187 168.851 68.7447 168.851 87.0197C168.851 118.453 194.371 140.88 217.279 152.81C249.564 169.623 308.325 192.17 334.68 206.173C356.693 217.869 402.186 237.441 431.536 275.453C460.886 313.465 452.815 369.186 449.146 392.578C446.211 411.292 430.313 437.9 422.731 448.865V426.204C424.198 420.6 434.538 399.696 438.14 383.806C443.276 361.145 439.966 326.057 422.731 290.969C405.854 256.612 364.364 231.452 319.271 213.483C249.564 185.705 227.786 175.079 213.213 166.699C166.176 139.652 158.578 110.412 158.578 110.412C158.578 110.412 154.176 179.857 185.727 213.483C198.755 227.367 232.201 249.302 262.038 266.115C274.156 272.943 328.81 290.969 367.699 320.209C406.588 349.449 415.393 394.04 417.595 416.701C419.796 439.362 405.121 467.871 405.121 467.871C405.121 467.871 396.86 488.444 396.341 509C396.313 510.104 395.42 511 394.316 511H185.727V494.187H201.136C201.136 494.187 213.213 494.918 213.213 476.643V274.887L238.558 290.969V494.187C238.558 494.187 384.151 498.418 385.309 494.187C391.913 470.064 385.309 438.631 367.699 416.701C344.806 388.192 315.602 372.11 297.992 366.262C273.778 358.221 247.363 353.835 247.363 353.835V338.484C247.363 338.484 297.992 348.718 319.271 361.145C328.033 366.262 356.693 377.227 376.504 407.198C391.914 430.51 396.316 456.906 396.316 456.906C396.316 456.906 407.322 385.268 356.693 342.139C313.43 305.285 327.319 323.273 232.201 275.453C136.565 227.372 136.566 162.313 136.566 130.88C136.566 110.412 141.702 13.9196 238.558 7.34061Z" fill="#F8F4EA"/>
<path d="M69.0599 139.652C79.2819 90.7702 123.847 59.4853 143.169 48.2766L136.566 69.4757C136.566 69.4757 85.148 98.7156 77.8649 166.699C71.9131 222.255 88.6397 246.161 112.352 275.453C130.695 298.114 179.857 322.158 201.136 328.25V342.139C168.851 337.753 136.566 320.209 106.481 290.969C86.6701 271.713 50.716 227.372 69.0599 139.652Z" fill="#F8F4EA"/>
</svg>
